<svg width="931" height="519" viewBox="0 0 931 519" fill="none" xmlns="http://www.w3.org/2000/svg">
<path d="M761.509 172.147L839.483 237.478L429.114 774.756L323.679 745.428L761.509 172.147Z" fill="#3E3F45"/>
<path fill-rule="evenodd" clip-rule="evenodd" d="M1006.83 122.131C1074.68 162.271 1112.68 241.346 1103.12 322.473C1090.07 433.159 993.928 512.016 888.321 498.658C810.917 488.868 746.862 431.159 726.033 352.449C705.205 273.739 731.707 189.536 793.177 139.116C854.647 88.6952 938.976 81.9914 1006.83 122.131ZM890.511 392.929C893.8 393.725 897.127 394.341 900.478 394.777L900.495 394.711C944.991 400.369 987.048 371.867 1000.42 326.993C1013.79 282.119 994.65 233.71 954.944 211.976C915.238 190.242 866.324 201.399 838.727 238.486L750.648 353.794L890.511 392.929Z" fill="#3E3F45"/>
<path d="M379.812 543.255L301.838 477.924L712.206 -59.3531L817.611 -30.0343L379.812 543.255Z" fill="#3E3F45"/>
<rect width="645.695" height="106.368" transform="matrix(0.936968 0.262173 -0.244053 0.951136 276.717 221.253)" fill="#3E3F45"/>
<path fill-rule="evenodd" clip-rule="evenodd" d="M324.444 241.224C392.295 281.364 430.302 360.439 420.736 441.565C407.684 552.252 311.546 631.108 205.938 617.751C128.535 607.961 64.4792 550.252 43.6506 471.542C22.822 392.832 49.3238 308.629 110.794 258.208C172.264 207.788 256.593 201.084 324.444 241.224ZM302.047 477.633C302.191 477.471 302.324 477.299 302.446 477.117L390.775 361.74L250.912 322.605C247.623 321.81 244.296 321.193 240.945 320.758C196.596 315.113 154.642 343.405 141.13 388.07C127.617 432.736 146.384 481.085 185.78 503.103C225.176 525.121 274.009 514.553 301.964 477.959L302.047 477.633Z" fill="#3E3F45"/>
</svg>
